<?xml version="1.0" encoding="utf-8"?>
<!-- Generator: Adobe Illustrator 16.0.0, SVG Export Plug-In . SVG Version: 6.00 Build 0)  -->
<!DOCTYPE svg PUBLIC "-//W3C//DTD SVG 1.1//EN" "http://www.w3.org/Graphics/SVG/1.1/DTD/svg11.dtd" [
	<!ENTITY ns_extend "http://ns.adobe.com/Extensibility/1.0/">
	<!ENTITY ns_ai "http://ns.adobe.com/AdobeIllustrator/10.0/">
	<!ENTITY ns_graphs "http://ns.adobe.com/Graphs/1.0/">
	<!ENTITY ns_vars "http://ns.adobe.com/Variables/1.0/">
	<!ENTITY ns_imrep "http://ns.adobe.com/ImageReplacement/1.0/">
	<!ENTITY ns_sfw "http://ns.adobe.com/SaveForWeb/1.0/">
	<!ENTITY ns_custom "http://ns.adobe.com/GenericCustomNamespace/1.0/">
	<!ENTITY ns_adobe_xpath "http://ns.adobe.com/XPath/1.0/">
]>
<svg version="1.1" id="Layer_1" xmlns:x="&ns_extend;" xmlns:i="&ns_ai;" xmlns:graph="&ns_graphs;"
	 xmlns="http://www.w3.org/2000/svg" xmlns:xlink="http://www.w3.org/1999/xlink" x="0px" y="0px" width="49.999px"
	 height="89.815px" viewBox="91.281 44.48 49.999 89.815" enable-background="new 91.281 44.48 49.999 89.815" xml:space="preserve"
	>
<metadata>
	<sfw  xmlns="&ns_sfw;">
		<slices></slices>
		<sliceSourceBounds  height="89.816" width="49.999" y="1411.112" x="1565.781" bottomLeftOrigin="true"></sliceSourceBounds>
	</sfw>
</metadata>
<title>126all</title>
<path fill="#FFFFFF" d="M92.798,132.797c1.994,1.996,5.228,1.998,7.222,0.004c0.002-0.001,0.004-0.002,0.004-0.004l39.76-39.796
	c1.994-1.994,1.997-5.228,0.004-7.224c-0.001-0.001-0.002-0.002-0.004-0.004l-39.76-39.797c-1.994-1.996-5.23-1.996-7.226,0
	c-1.996,1.996-1.996,5.231,0,7.228l36.146,36.184l-36.146,36.146c-2.006,1.982-2.024,5.216-0.042,7.222
	C92.77,132.769,92.784,132.783,92.798,132.797z"/>
</svg>
