<?xml version="1.0" encoding="utf-8"?>
<!-- Generator: Adobe Illustrator 16.0.0, SVG Export Plug-In . SVG Version: 6.00 Build 0)  -->
<!DOCTYPE svg PUBLIC "-//W3C//DTD SVG 1.1//EN" "http://www.w3.org/Graphics/SVG/1.1/DTD/svg11.dtd" [
	<!ENTITY ns_extend "http://ns.adobe.com/Extensibility/1.0/">
	<!ENTITY ns_ai "http://ns.adobe.com/AdobeIllustrator/10.0/">
	<!ENTITY ns_graphs "http://ns.adobe.com/Graphs/1.0/">
	<!ENTITY ns_vars "http://ns.adobe.com/Variables/1.0/">
	<!ENTITY ns_imrep "http://ns.adobe.com/ImageReplacement/1.0/">
	<!ENTITY ns_sfw "http://ns.adobe.com/SaveForWeb/1.0/">
	<!ENTITY ns_custom "http://ns.adobe.com/GenericCustomNamespace/1.0/">
	<!ENTITY ns_adobe_xpath "http://ns.adobe.com/XPath/1.0/">
]>
<svg version="1.1" id="Layer_1" xmlns:x="&ns_extend;" xmlns:i="&ns_ai;" xmlns:graph="&ns_graphs;"
	 xmlns="http://www.w3.org/2000/svg" xmlns:xlink="http://www.w3.org/1999/xlink" x="0px" y="0px" width="8.135px" height="9.658px"
	 viewBox="0 0 8.135 9.658" enable-background="new 0 0 8.135 9.658" xml:space="preserve">
<metadata>
	<sfw  xmlns="&ns_sfw;">
		<slices></slices>
		<sliceSourceBounds  width="8.136" height="9.657" y="1412.671" x="595.432" bottomLeftOrigin="true"></sliceSourceBounds>
	</sfw>
</metadata>
<path opacity="0.3" enable-background="new    " d="M4.06,9.658c0.344,0,0.623-0.279,0.623-0.623v-6.83l2.36,2.532
	c0.226,0.259,0.618,0.287,0.878,0.061c0.26-0.226,0.287-0.62,0.063-0.879c-0.01-0.011-0.021-0.022-0.029-0.033L4.516,0.198
	c-0.234-0.251-0.629-0.265-0.88-0.03c-0.011,0.01-0.021,0.02-0.03,0.03L0.168,3.886c-0.235,0.252-0.223,0.646,0.03,0.881
	c0.251,0.234,0.646,0.221,0.88-0.03l2.358-2.532v6.83C3.437,9.379,3.716,9.658,4.06,9.658z"/>
</svg>
