<?xml version="1.0" encoding="utf-8"?>
<!-- Generator: Adobe Illustrator 16.0.0, SVG Export Plug-In . SVG Version: 6.00 Build 0)  -->
<!DOCTYPE svg PUBLIC "-//W3C//DTD SVG 1.1//EN" "http://www.w3.org/Graphics/SVG/1.1/DTD/svg11.dtd" [
	<!ENTITY ns_extend "http://ns.adobe.com/Extensibility/1.0/">
	<!ENTITY ns_ai "http://ns.adobe.com/AdobeIllustrator/10.0/">
	<!ENTITY ns_graphs "http://ns.adobe.com/Graphs/1.0/">
	<!ENTITY ns_vars "http://ns.adobe.com/Variables/1.0/">
	<!ENTITY ns_imrep "http://ns.adobe.com/ImageReplacement/1.0/">
	<!ENTITY ns_sfw "http://ns.adobe.com/SaveForWeb/1.0/">
	<!ENTITY ns_custom "http://ns.adobe.com/GenericCustomNamespace/1.0/">
	<!ENTITY ns_adobe_xpath "http://ns.adobe.com/XPath/1.0/">
]>
<svg version="1.1" id="Layer_1" xmlns:x="&ns_extend;" xmlns:i="&ns_ai;" xmlns:graph="&ns_graphs;"
	 xmlns="http://www.w3.org/2000/svg" xmlns:xlink="http://www.w3.org/1999/xlink" x="0px" y="0px" width="8.135px" height="9.657px"
	 viewBox="0 0 8.135 9.657" enable-background="new 0 0 8.135 9.657" xml:space="preserve">
<metadata>
	<sfw  xmlns="&ns_sfw;">
		<slices></slices>
		<sliceSourceBounds  width="8.136" height="9.658" y="1412.671" x="595.433" bottomLeftOrigin="true"></sliceSourceBounds>
	</sfw>
</metadata>
<path opacity="0.3" d="M4.076,0C3.732,0,3.453,0.279,3.453,0.623v6.831l-2.36-2.532c-0.226-0.26-0.618-0.287-0.878-0.061
	c-0.26,0.225-0.288,0.619-0.062,0.88c0.01,0.01,0.02,0.02,0.03,0.03l3.437,3.69c0.234,0.25,0.629,0.264,0.88,0.029
	c0.01-0.011,0.02-0.02,0.03-0.029l3.438-3.689C8.203,5.52,8.19,5.127,7.937,4.891C7.687,4.656,7.292,4.67,7.058,4.922L4.699,7.454
	V0.623C4.699,0.279,4.419,0,4.076,0z"/>
</svg>
